<svg aria-hidden="true" style="position: absolute; width: 0; height: 0; overflow: hidden;" version="1.1" xmlns="http://www.w3.org/2000/svg" xmlns:xlink="http://www.w3.org/1999/xlink">
<defs>
<symbol id="icon-facebook" viewBox="0 0 32 32">
<path d="M32 16.097c0-8.836-7.164-16-16-16s-16 7.164-16 16c0 7.987 5.851 14.605 13.5 15.805v-11.18h-4.063v-4.627h4.063v-3.523c0-4.009 2.389-6.225 6.044-6.225 1.749 0 3.581 0.313 3.581 0.313v3.937h-2.019c-1.988 0-2.608 1.233-2.608 2.499v3h4.437l-0.709 4.627h-3.728v11.18c7.651-1.201 13.501-7.821 13.501-15.807z"></path>
</symbol>
<symbol id="icon-instagram" viewBox="0 0 32 32">
<path d="M16 0c-4.347 0-4.889 0.020-6.596 0.096-1.704 0.080-2.864 0.348-3.884 0.744-1.052 0.408-1.945 0.956-2.835 1.845s-1.439 1.781-1.845 2.835c-0.396 1.020-0.665 2.18-0.744 3.884-0.080 1.707-0.096 2.249-0.096 6.596s0.020 4.889 0.096 6.596c0.080 1.703 0.348 2.864 0.744 3.884 0.408 1.051 0.956 1.945 1.845 2.835 0.889 0.888 1.781 1.439 2.835 1.845 1.021 0.395 2.181 0.665 3.884 0.744 1.707 0.080 2.249 0.096 6.596 0.096s4.889-0.020 6.596-0.096c1.703-0.080 2.864-0.349 3.884-0.744 1.051-0.408 1.945-0.957 2.835-1.845 0.888-0.889 1.439-1.78 1.845-2.835 0.395-1.020 0.665-2.181 0.744-3.884 0.080-1.707 0.096-2.249 0.096-6.596s-0.020-4.889-0.096-6.596c-0.080-1.703-0.349-2.865-0.744-3.884-0.408-1.052-0.957-1.945-1.845-2.835-0.889-0.889-1.78-1.439-2.835-1.845-1.020-0.396-2.181-0.665-3.884-0.744-1.707-0.080-2.249-0.096-6.596-0.096zM16 2.88c4.271 0 4.78 0.021 6.467 0.095 1.56 0.073 2.407 0.332 2.969 0.553 0.749 0.289 1.28 0.636 1.843 1.195 0.559 0.56 0.905 1.092 1.195 1.841 0.219 0.563 0.48 1.409 0.551 2.969 0.076 1.688 0.093 2.195 0.093 6.467s-0.020 4.78-0.099 6.467c-0.081 1.56-0.341 2.407-0.561 2.969-0.299 0.749-0.639 1.28-1.199 1.843-0.559 0.559-1.099 0.905-1.84 1.195-0.56 0.219-1.42 0.48-2.98 0.551-1.699 0.076-2.199 0.093-6.479 0.093-4.281 0-4.781-0.020-6.479-0.099-1.561-0.081-2.421-0.341-2.981-0.561-0.759-0.299-1.28-0.639-1.839-1.199-0.561-0.559-0.92-1.099-1.2-1.84-0.22-0.56-0.479-1.42-0.56-2.98-0.060-1.68-0.081-2.199-0.081-6.459 0-4.261 0.021-4.781 0.081-6.481 0.081-1.56 0.34-2.419 0.56-2.979 0.28-0.76 0.639-1.28 1.2-1.841 0.559-0.559 1.080-0.919 1.839-1.197 0.56-0.221 1.401-0.481 2.961-0.561 1.7-0.060 2.2-0.080 6.479-0.080l0.060 0.040zM16 7.784c-4.54 0-8.216 3.68-8.216 8.216 0 4.54 3.68 8.216 8.216 8.216 4.54 0 8.216-3.68 8.216-8.216 0-4.54-3.68-8.216-8.216-8.216zM16 21.333c-2.947 0-5.333-2.387-5.333-5.333s2.387-5.333 5.333-5.333 5.333 2.387 5.333 5.333-2.387 5.333-5.333 5.333zM26.461 7.46c0 1.060-0.861 1.92-1.92 1.92-1.060 0-1.92-0.861-1.92-1.92s0.861-1.919 1.92-1.919c1.057-0.001 1.92 0.86 1.92 1.919z"></path>
</symbol>
<symbol id="icon-telegram" viewBox="0 0 32 32">
<path d="M15.925 0c-8.804 0.042-15.925 7.19-15.925 16 0 0 0 0 0 0v0c0 8.837 7.163 16 16 16v0c8.837 0 16-7.163 16-16v0c0-8.837-7.163-16-16-16v0c-0.011-0-0.024-0-0.037-0s-0.026 0-0.039 0h0.002zM22.541 9.632c0.133-0.003 0.428 0.031 0.62 0.187 0.124 0.108 0.208 0.259 0.228 0.43l0 0.003c0.021 0.124 0.048 0.408 0.027 0.629-0.24 2.531-1.283 8.669-1.813 11.503-0.224 1.2-0.665 1.601-1.093 1.64-0.928 0.087-1.633-0.613-2.533-1.203-1.408-0.924-2.204-1.499-3.571-2.4-1.58-1.040-0.556-1.613 0.344-2.547 0.236-0.245 4.329-3.969 4.409-4.307 0.009-0.043 0.019-0.2-0.075-0.283s-0.232-0.055-0.332-0.032c-0.141 0.032-2.391 1.52-6.748 4.46-0.64 0.44-1.217 0.653-1.736 0.64-0.571-0.011-1.669-0.321-2.487-0.587-1.003-0.327-1.799-0.499-1.729-1.052 0.036-0.288 0.433-0.583 1.191-0.884 4.664-2.032 7.773-3.372 9.331-4.019 4.443-1.848 5.367-2.169 5.968-2.18z"></path>
</symbol>
<symbol id="icon-twitter" viewBox="0 0 32 32">
<path d="M31.937 6.093c-1.096 0.496-2.368 0.86-3.701 1.027l-0.065 0.007c1.355-0.824 2.374-2.085 2.871-3.584l0.013-0.047c-1.268 0.74-2.673 1.279-4.169 1.579-1.2-1.281-2.903-2.079-4.791-2.079-3.623 0-6.56 2.937-6.56 6.56 0 0.53 0.063 1.046 0.182 1.54l-0.009-0.045c-5.453-0.257-10.284-2.877-13.52-6.835-0.558 0.933-0.888 2.058-0.888 3.261 0 0.014 0 0.028 0 0.042v-0.002c0 2.28 1.16 4.284 2.917 5.461-1.096-0.036-2.114-0.336-3.003-0.838l0.033 0.017v0.080c0 0.001 0 0.002 0 0.003 0 3.164 2.239 5.805 5.219 6.426l0.043 0.007c-0.517 0.144-1.111 0.227-1.724 0.227-0.433 0-0.857-0.041-1.267-0.12l0.042 0.007c0.868 2.628 3.278 4.501 6.132 4.556l0.007 0c-2.213 1.75-5.044 2.807-8.122 2.807-0.005 0-0.010 0-0.014 0h0.001c-0.52 0-1.039-0.031-1.56-0.089 2.846 1.847 6.326 2.945 10.062 2.945 0.005 0 0.010 0 0.015 0h-0.001c12.071 0 18.664-9.995 18.664-18.647 0-0.28 0-0.56-0.020-0.84 1.293-0.938 2.382-2.064 3.25-3.35l0.030-0.047z"></path>
</symbol>
</defs>
</svg>
