<svg aria-hidden="true" style="position: absolute; width: 0; height: 0; overflow: hidden;" version="1.1" xmlns="http://www.w3.org/2000/svg" xmlns:xlink="http://www.w3.org/1999/xlink">
<defs>
<symbol id="icon-amara" viewBox="0 0 32 32">
<path d="M0.048 15.814c0.237-0.778 0.669-1.466 1.033-2.185 0.381-0.75 0.361-1.55 0.304-2.357-0.013-0.16-0.021-0.345-0.021-0.533 0-0.162 0.006-0.323 0.017-0.483l-0.001 0.022c0.048-0.701 0.361-1.263 0.899-1.712 0.336-0.282 0.69-0.536 1.052-0.783 0.659-0.446 1.166-1.072 1.457-1.807l0.009-0.026c0.134-0.34 0.298-0.669 0.443-1.006 0.394-0.903 1.104-1.39 2.061-1.557 0.329-0.058 0.654-0.127 0.982-0.177 0.834-0.129 1.54-0.502 2.152-1.074 0.242-0.227 0.505-0.432 0.757-0.649 0.721-0.621 1.546-0.781 2.458-0.54 0.263 0.069 0.529 0.126 0.785 0.212 0.424 0.15 0.914 0.237 1.423 0.237 0.507 0 0.994-0.086 1.447-0.244l-0.031 0.009c0.424-0.138 0.857-0.246 1.302-0.303 0.625-0.080 1.179 0.080 1.686 0.437 0.303 0.213 0.595 0.439 0.854 0.7 0.754 0.757 1.667 1.162 2.721 1.292 0.311 0.038 0.618 0.124 0.925 0.193 0.761 0.175 1.296 0.631 1.634 1.321 0.179 0.368 0.356 0.738 0.505 1.12 0.311 0.788 0.809 1.416 1.516 1.891 0.364 0.243 0.714 0.503 1.050 0.79 0.56 0.477 0.841 1.077 0.872 1.805 0.022 0.464-0.012 0.926-0.041 1.387-0.053 0.803 0.134 1.538 0.529 2.231 0.177 0.31 0.34 0.63 0.505 0.944 0.444 0.843 0.441 1.689 0 2.531-0.119 0.232-0.225 0.476-0.367 0.692-0.599 0.925-0.766 1.933-0.644 3.007 0.039 0.339 0.029 0.681 0.005 1.020-0.055 0.803-0.482 1.385-1.102 1.851-0.288 0.215-0.573 0.432-0.87 0.635-0.644 0.438-1.139 1.051-1.423 1.77l-0.009 0.026c-0.137 0.339-0.292 0.671-0.439 1.008-0.398 0.912-1.109 1.409-2.077 1.574-0.319 0.055-0.637 0.121-0.957 0.171-0.841 0.131-1.557 0.502-2.175 1.085-0.242 0.227-0.505 0.432-0.757 0.649-0.724 0.619-1.548 0.778-2.458 0.536-0.261-0.069-0.529-0.127-0.786-0.213-0.423-0.149-0.911-0.235-1.419-0.235s-0.996 0.086-1.45 0.244l0.031-0.009c-0.414 0.136-0.841 0.24-1.277 0.298-0.643 0.083-1.214-0.080-1.735-0.454-0.309-0.216-0.58-0.441-0.832-0.686l0.001 0.001c-0.755-0.758-1.668-1.161-2.722-1.29-0.311-0.039-0.618-0.125-0.925-0.194-0.75-0.172-1.283-0.623-1.619-1.302-0.15-0.285-0.327-0.669-0.489-1.061l-0.039-0.106c-0.301-0.761-0.808-1.387-1.452-1.825l-0.014-0.009c-0.414-0.278-0.77-0.548-1.111-0.835l0.019 0.015c-0.554-0.47-0.83-1.062-0.867-1.782-0.024-0.508 0.026-1.012 0.045-1.516 0.022-0.656-0.093-1.282-0.406-1.867-0.355-0.666-0.739-1.318-0.963-2.046-0.003-0.282-0.003-0.561-0.003-0.841zM4.957 16.215c0 6.011 4.884 10.877 10.926 10.865 5.934-0.012 10.73-4.757 10.869-10.579 0.144-6.091-4.736-10.986-10.648-11.114-6.175-0.133-11.146 4.838-11.146 10.827z"></path>
<path d="M4.957 16.216c0-5.987 4.97-10.961 11.146-10.83 5.912 0.126 10.792 5.021 10.648 11.114-0.137 5.824-4.935 10.569-10.869 10.579-6.042 0.011-10.926-4.855-10.926-10.863zM15.843 26.46c5.682 0 10.284-4.57 10.292-10.201 0.007-5.629-4.538-10.113-10.007-10.254-5.788-0.151-10.556 4.503-10.553 10.205 0.003 5.674 4.585 10.249 10.268 10.249z"></path>
<path d="M15.843 26.46c-5.682 0-10.266-4.575-10.268-10.251-0.003-5.703 4.767-10.354 10.552-10.206 5.469 0.141 10.013 4.625 10.007 10.254-0.007 5.633-4.61 10.204-10.292 10.204zM18.675 11.809c-1.284-1.488-2.884-1.873-4.684-1.609-1.691 0.248-2.917 1.225-3.816 2.617-0.911 1.41-1.1 2.968-0.855 4.599 0.359 2.39 2.463 4.802 5.239 4.921 1.31 0.058 2.527-0.209 3.546-1.098 0.189-0.164 0.361-0.346 0.57-0.549 0 0.382 0.009 0.739-0.005 1.091-0.007 0.182 0.041 0.233 0.227 0.232 0.843-0.009 1.686-0.012 2.527 0.003 0.208 0.003 0.238-0.065 0.238-0.248-0.008-1.782-0.005-3.566-0.005-5.347v-5.741c0-0.119 0.031-0.232-0.175-0.229-0.877 0.012-1.756 0.009-2.633 0.003-0.163-0.003-0.182 0.064-0.18 0.201 0.009 0.363 0.005 0.726 0.005 1.155z"></path>
<path d="M15.442 12.956c1.924 0.009 3.241 1.379 3.232 3.358-0.009 1.858-1.394 3.207-3.258 3.202-1.907-0.007-3.273-1.466-3.205-3.439 0.057-1.782 1.411-3.131 3.231-3.121z"></path>
</symbol>
<symbol id="icon-basket" viewBox="0 0 32 32">
<path fill="#fff" style="fill: var(--color1, #fff)" d="M12.162 23.92c-2.23 0.003-4.037 1.81-4.040 4.040v0c0.003 2.23 1.81 4.037 4.040 4.040h0c2.23-0.003 4.037-1.81 4.040-4.040v-0c-0.003-2.23-1.81-4.037-4.040-4.040h-0zM12.162 29.576c-0.892-0.001-1.615-0.724-1.616-1.616v-0c0-0.891 0.725-1.616 1.616-1.616s1.616 0.725 1.616 1.616c0 0.892-0.725 1.616-1.616 1.616zM24.121 23.92c-2.23 0.003-4.037 1.81-4.040 4.040v0c0.003 2.23 1.809 4.037 4.039 4.040h0c2.23-0.003 4.037-1.81 4.040-4.040v-0c-0.003-2.23-1.81-4.037-4.040-4.040h-0zM24.121 29.576c-0.892-0.001-1.615-0.724-1.616-1.616v-0c0-0.891 0.725-1.616 1.616-1.616 0.892 0 1.616 0.725 1.616 1.616 0 0.892-0.724 1.616-1.616 1.616zM31.13 7.892c-0.23-0.29-0.579-0.458-0.948-0.458h-21.224l-1.102-5.568c-0.099-0.488-0.48-0.865-0.962-0.956l-0.008-0.001-4.849-0.889c-0.066-0.013-0.141-0.020-0.218-0.020-0.67 0-1.212 0.543-1.212 1.212 0 0.592 0.425 1.085 0.986 1.191l0.008 0.001 4.038 0.74 3.557 17.98c0.112 0.567 0.61 0.976 1.19 0.976h16.969c0.564 0 1.053-0.389 1.18-0.94l2.83-12.241c0.020-0.082 0.031-0.176 0.031-0.272 0-0.287-0.099-0.55-0.266-0.757l0.002 0.002zM26.39 19.677h-15.010l-1.943-9.818h19.22l-2.267 9.818z"></path>
</symbol>
<symbol id="icon-circle" viewBox="0 0 32 32">
<path d="M17.044 0.839c0.34 0.112 0.699 0.098 1.046 0.15 2.693 0.399 5.089 1.438 7.103 2.957l-0.039-0.028c0.115 0.086 0.127 0.136 0.031 0.25-0.459 0.521-1.366 1.585-2.267 2.654l-0.505 0.615c-0.104 0.125-0.159 0.121-0.284 0.033-1.325-0.966-2.924-1.639-4.659-1.89l-0.057-0.007c-2.116-0.301-4.166-0.035-6.092 0.895-3.468 1.677-5.551 4.431-6.16 8.221-0.71 4.421 1.588 8.962 5.623 11.022 3.882 1.982 7.68 1.699 11.312-0.706 0.159-0.105 0.221-0.095 0.34 0.047 1.343 1.612 2.237 2.664 3.138 3.711l-0.402-0.478c0.112 0.13 0.078 0.182-0.042 0.271-1.825 1.357-3.852 2.287-6.083 2.737-3.364 0.681-6.64 0.361-9.735-1.126-4.62-2.222-7.49-5.863-8.603-10.862-0.102-0.46-0.191-1.030-0.246-1.609l-0.005-0.060c-0.004-0.045 0.022-0.108-0.054-0.125v-2.565c0.073-0.018 0.047-0.079 0.054-0.124 0.049-0.364 0.086-0.728 0.147-1.090 0.541-3.266 1.992-6.076 4.342-8.406 2.437-2.415 5.378-3.862 8.789-4.349 0.297-0.042 0.607-0.019 0.891-0.136 0.802-0.002 1.61-0.002 2.416-0.002z"></path>
<path d="M31.326 16.237c-0.066 4.375-1.661 8.097-4.812 11.157-0.13 0.126-0.193 0.147-0.326-0.014-1.238-1.49-2.132-2.542-3.034-3.587l0.299 0.354c-0.105-0.124-0.093-0.177 0.019-0.291 2.432-2.497 3.51-5.47 3.112-8.936-0.284-2.471-1.368-4.568-3.121-6.327-0.099-0.098-0.117-0.144-0.021-0.259 0.458-0.521 1.364-1.584 2.264-2.653l0.506-0.616c0.115-0.138 0.178-0.121 0.293-0.009 2.687 2.596 4.283 5.733 4.721 9.444 0.065 0.572 0.105 1.151 0.1 1.738z"></path>
</symbol>
<symbol id="icon-fire" viewBox="0 0 32 32">
<path fill="#FF9159" style="fill: var(--color2, #FF9159" d="M17.247 7.25c0.781 1.083 1.25 2.437 1.25 3.9v0 1.35c0 0 0.001 0 0.001 0 0.895 0 1.647-0.613 1.86-1.442l0.003-0.013 0.136-0.545 0.37 0.443c0.568 0.678 0.913 1.559 0.913 2.521 0 0.981-0.359 1.879-0.953 2.568l0.004-0.005c-0.204 0.24-0.329 0.553-0.329 0.896 0 0.764 0.62 1.384 1.384 1.384 0.434 0 0.821-0.2 1.075-0.512l0.002-0.003 1.034-1.292 1 2.5c0.234 0.752 0.369 1.616 0.369 2.511 0 2.413-0.978 4.598-2.56 6.18v0l-0.127 0.126c-1.657 1.657-3.947 2.683-6.476 2.683h-1.020c-0 0-0 0-0 0-5.059 0-9.16-4.101-9.16-9.16 0-2.223 0.792-4.262 2.109-5.848l-0.012 0.015 4.048-4.9c0.48-0.578 0.771-1.327 0.771-2.145 0-0.495-0.107-0.965-0.299-1.388l0.009 0.021c-0.183-0.402-0.29-0.873-0.29-1.368 0-1.164 0.591-2.19 1.488-2.795l0.012-0.008 2.137-1.425v1.85c0 1.398 0.437 2.762 1.25 3.9z"></path>
<path fill="#fdd04a" style="fill: var(--color3, #fdd04a)" d="M19.689 27.088l0.004-0.004c1.114-1.123 1.803-2.669 1.803-4.377 0-0.608-0.087-1.196-0.25-1.751l0.011 0.044-1.454 1.455c-0.267 0.268-0.638 0.435-1.046 0.435-0.793 0-1.441-0.626-1.476-1.41l-0-0.003c-0.017-0.368 0.105-0.73 0.34-1.013 0.564-0.672 0.906-1.547 0.906-2.502 0-0.637-0.152-1.238-0.422-1.768l0.010 0.022-2.357-4.715-0.363 3.988c-0.094 0.999-0.587 1.867-1.316 2.455l-0.007 0.005-2.061 1.65c-1.072 0.863-1.753 2.176-1.753 3.647v0.567c0 2.58 2.092 4.671 4.672 4.671 0.016 0 0.032-0 0.047-0l-0.002 0 1.445-0.014c1.279-0.013 2.433-0.538 3.269-1.38l0-0z"></path>
<path fill="#fe691e" style="fill: var(--color4, #fe691e)" d="M7.5 12c-0.276 0-0.5-0.224-0.5-0.5v0-1c0-0.276 0.224-0.5 0.5-0.5s0.5 0.224 0.5 0.5v0 1c0 0.276-0.224 0.5-0.5 0.5v0z"></path>
<path fill="#ff8d54" style="fill: var(--color5, #ff8d54)" d="M9 9.5c-0.276 0-0.5-0.224-0.5-0.5v0-1c0-0.276 0.224-0.5 0.5-0.5s0.5 0.224 0.5 0.5v0 1c0 0.276-0.224 0.5-0.5 0.5v0z"></path>
<path fill="#ffb895" style="fill: var(--color6, #ffb895)" d="M7 7.5c-0.276 0-0.5-0.224-0.5-0.5v0-1c0-0.276 0.224-0.5 0.5-0.5s0.5 0.224 0.5 0.5v0 1c0 0.276-0.224 0.5-0.5 0.5v0z"></path>
<path fill="#fe691e" style="fill: var(--color4, #fe691e)" d="M24.5 13.5c-0.276 0-0.5-0.224-0.5-0.5v0-1c0-0.276 0.224-0.5 0.5-0.5s0.5 0.224 0.5 0.5v0 1c0 0.276-0.224 0.5-0.5 0.5v0z"></path>
<path fill="#ff8d54" style="fill: var(--color5, #ff8d54)" d="M23 10c-0.276 0-0.5-0.224-0.5-0.5v0-1c0-0.276 0.224-0.5 0.5-0.5s0.5 0.224 0.5 0.5v0 1c0 0.276-0.224 0.5-0.5 0.5v0z"></path>
<path fill="#ffb895" style="fill: var(--color6, #ffb895)" d="M25 8.5c-0.276 0-0.5-0.224-0.5-0.5v0-1.5c0-0.276 0.224-0.5 0.5-0.5s0.5 0.224 0.5 0.5v0 1.5c0 0.276-0.224 0.5-0.5 0.5v0z"></path>
</symbol>
<symbol id="icon-ideaa" viewBox="0 0 30 32">
<path d="M14.154 19.868c-0.118-0.806-0.726-1.194-1.315-1.59-0.599-0.403-1.219-0.782-1.663-1.366-0.63-0.824-0.872-1.738-0.435-2.718 0.625-1.404 2.547-1.799 3.79-0.757 0.378 0.316 0.617 0.374 1.076 0.162 0.995-0.467 2.039-0.181 2.793 0.672 1.006 1.136 1.266 2.461 0.832 3.883-0.691 2.249-2.166 3.799-4.452 4.451-1.548 0.443-3.073 0.201-4.485-0.583-2.281-1.27-3.776-3.152-4.232-5.733-0.662-3.748 0.908-7.272 4.575-8.972 3.625-1.681 7.133-1.289 10.301 1.157 1.891 1.459 2.896 3.501 3.037 5.873 0.247 4.145-1.669 7.134-5.214 9.167-1.195 0.686-2.523 1.016-3.849 1.349-0.798 0.201-1.6 0.393-2.365 0.707-0.282 0.114-0.525 0.253-0.746 0.421l0.008-0.006c-0.138 0.107-0.249 0.236-0.317 0.398-0.056 0.136-0.070 0.262 0.064 0.368 0.141 0.111 0.197-0.033 0.275-0.091 0.956-0.701 2.044-1.072 3.197-1.282 0.724-0.131 1.452-0.177 2.175 0 0.306 0.075 0.585 0.204 0.811 0.426 0.587 0.576 0.463 1.445-0.272 1.895-0.506 0.309-1.072 0.458-1.648 0.56-1.405 0.244-2.805 0.253-4.189-0.145-0.111-0.033-0.146 0.005-0.176 0.111-0.049 0.161-0.012 0.306 0.040 0.45 0.059 0.161 0.157 0.302 0.268 0.435 0.355 0.426 0.399 0.429 0.865 0.169 0.998-0.557 2.055-0.822 3.195-0.555 0.477 0.112 0.872 0.368 1.111 0.81 0.275 0.509 0.134 0.916-0.398 1.153-0.471 0.21-0.979 0.251-1.487 0.258-0.94 0.011-1.851-0.127-2.709-0.525-0.12-0.056-0.186-0.029-0.268 0.049-0.286 0.265-0.423 0.576-0.31 0.967 0.013 0.035 0.021 0.075 0.021 0.118 0 0.029-0.004 0.057-0.010 0.084l0.001-0.002c-0.401-0.41-0.46-0.861-0.159-1.388 0.078-0.136 0.061-0.188-0.059-0.281-0.536-0.434-0.961-0.938-0.961-1.675 0-0.554-0.005-0.547-0.301-1.007-0.367-0.567-0.265-1.129 0.070-1.665 0.367-0.581 0.938-0.917 1.539-1.209 0.991-0.48 2.044-0.794 3.088-1.129 1.686-0.543 3.202-1.367 4.457-2.627 1.466-1.473 2.276-3.241 2.295-5.33 0-0.023 0-0.051 0-0.078 0-2.84-1.839-5.25-4.392-6.104l-0.045-0.013c-2.422-0.794-4.759-0.618-6.87 0.909-1.576 1.143-2.436 2.738-2.743 4.651-0.502 3.11 1.559 5.827 3.664 6.895 1.274 0.646 2.563 0.628 3.809-0.037 1.706-0.913 2.666-2.358 2.815-4.289 0.067-0.868-0.271-1.628-0.863-2.264-0.432-0.466-1.020-0.573-1.602-0.329-0.137 0.060-0.15 0.104-0.086 0.237 0.246 0.515 0.362 1.049 0.178 1.616-0.242 0.744-0.893 1.164-1.57 1.005-0.617-0.146-0.98-0.68-0.888-1.308 0.089-0.613 0.383-1.129 0.785-1.587 0.105-0.12 0.115-0.19-0.009-0.303-0.435-0.393-0.931-0.62-1.525-0.543-1.025 0.133-1.582 1.026-1.311 2.065 0.164 0.633 0.553 1.11 1.027 1.537 0.375 0.339 0.768 0.66 1.133 1.012 0.392 0.377 0.686 0.815 0.655 1.395-0.013 0.022-0.023 0.049-0.026 0.077l-0 0.001zM13.018 27.113c1.313 0.052 2.608-0.023 3.853-0.506-1.344-0.297-2.613-0.014-3.854 0.506zM14.916 15.235c-0.332 0.3-0.569 0.637-0.675 1.057-0.040 0.159-0.026 0.307 0.141 0.4 0.157 0.089 0.31 0.091 0.458-0.017 0.138-0.1 0.214-0.24 0.265-0.398 0.121-0.372-0.014-0.697-0.19-1.041zM13.411 29.924c0.941 0.213 1.821 0.201 2.712-0.038-0.324-0.398-1.948-0.314-2.711 0.038zM9.585 0.848c0.171 0.009 0.355 0.108 0.463 0.314 0.508 0.991 0.959 2.002 1.248 3.080 0.035 0.131 0.040 0.269 0.063 0.406 0.019 0.114 0.029 0.232-0.093 0.29s-0.219-0.023-0.297-0.103c-0.155-0.159-0.322-0.311-0.449-0.494-0.542-0.751-1.051-1.606-1.486-2.504l-0.045-0.103c-0.209-0.438 0.072-0.893 0.597-0.886zM2.771 5.786c0.127-0.010 0.242 0.032 0.338 0.102 1.123 0.787 2.253 1.567 3.256 2.506 0.092 0.086 0.272 0.176 0.186 0.325-0.094 0.162-0.263 0.049-0.393 0-1.306-0.483-2.513-1.164-3.726-1.833-0.237-0.131-0.322-0.438-0.235-0.701 0.078-0.234 0.315-0.398 0.573-0.4zM19.738 0.839c0.437 0 0.744 0.431 0.549 0.822-0.571 1.143-1.24 2.227-2.065 3.211-0.066 0.078-0.141 0.133-0.244 0.087-0.138-0.063-0.099-0.188-0.075-0.293 0.173-0.768 0.441-1.507 0.738-2.237 0.169-0.419 0.357-0.83 0.545-1.244 0.088-0.205 0.288-0.347 0.522-0.347 0.011 0 0.022 0 0.033 0.001l-0.002-0zM25.923 5.663c0.306 0 0.493 0.129 0.595 0.375 0.108 0.267 0.040 0.525-0.209 0.705-0.291 0.214-0.592 0.413-0.895 0.605-0.74 0.463-1.466 0.955-2.262 1.32-0.054 0.028-0.125 0.058-0.197 0.086l-0.017 0.006c-0.078 0.028-0.164 0.086-0.231-0.012-0.056-0.081-0.016-0.164 0.033-0.236 0.183-0.259 0.4-0.495 0.628-0.714 0.652-0.641 1.333-1.265 2.034-1.866l0.055-0.046c0.144-0.121 0.291-0.239 0.467-0.222zM25.955 14.945c-0.061-0.003-0.12-0.008-0.182-0.009-0.081 0-0.154-0.017-0.19-0.101-0.037-0.091-0.002-0.166 0.060-0.232 0.156-0.164 0.334-0.295 0.534-0.398 0.873-0.455 1.769-0.865 2.702-1.19 0.425-0.147 0.777 0.104 0.742 0.517-0.014 0.164-0.082 0.311-0.233 0.375-0.988 0.447-2.14 0.807-3.341 1.024l-0.092 0.014zM2.928 14.564c-0.829-0.043-1.522-0.095-2.211-0.201-0.326-0.049-0.517-0.204-0.547-0.452-0.042-0.337 0.202-0.63 0.541-0.595 1.017 0.108 2.018 0.303 2.998 0.599 0.13 0.041 0.245 0.122 0.367 0.185 0.089 0.048 0.153 0.112 0.131 0.225-0.019 0.099-0.101 0.127-0.183 0.156-0.404 0.137-0.82 0.084-1.095 0.084z"></path>
<path d="M13.017 27.113c1.241-0.521 2.51-0.804 3.853-0.506-1.245 0.48-2.539 0.557-3.853 0.506zM14.915 15.235c0.176 0.342 0.313 0.668 0.189 1.042-0.052 0.157-0.127 0.3-0.265 0.398-0.15 0.108-0.301 0.108-0.458 0.017-0.164-0.094-0.182-0.244-0.141-0.401 0.108-0.419 0.346-0.756 0.676-1.056zM13.412 29.924c0.763-0.352 2.387-0.434 2.711-0.038-0.891 0.239-1.771 0.248-2.71 0.037z"></path>
</symbol>
<symbol id="icon-lightai" viewBox="0 0 29 32">
<path d="M18.642 0.862l-0.61 1.99c-11.588 42.274-12.648 45.641-13.712 49.007l10.607-38.902c-0.056 0.186-0.047 0.238 0.168 0.261 1.101 0.123 2.198 0.266 3.297 0.396 0.125 0.014 0.199 0.061 0.265 0.167 0.824 1.361 1.649 2.725 2.486 4.080 0.099 0.16 0 0.233-0.076 0.328l-4.515 5.639c-2.019 2.517-4.035 5.038-6.054 7.555-0.071 0.090-0.121 0.21-0.289 0.25 0.113-0.37 0.218-0.713 0.326-1.058 1.158-3.726 2.313-7.45 3.479-11.174 0.064-0.2 0.043-0.252-0.173-0.276-1.075-0.119-2.145-0.261-3.217-0.386-0.17-0.019-0.275-0.073-0.367-0.227-1.937-3.313-2.737-4.609-3.543-5.901l1.124 1.93c-0.090-0.147-0.085-0.236 0.026-0.377 3.519-4.369 7.030-8.741 10.542-13.115 0.060-0.074 0.121-0.142 0.182-0.212 0.022 0.011 0.038 0.016 0.057 0.023z"></path>
<path d="M12.487 30.074c0.848-1.059 1.678-2.094 2.505-3.133 0.099-0.125 0.231-0.101 0.355-0.111 1.682-0.141 3.255-0.629 4.679-1.531 2.979-1.887 4.711-4.575 5.049-8.087 0.465-4.829-2.448-9.328-7.047-10.953-0.19-0.068-0.251-0.127-0.182-0.337 0.293-0.906 0.572-1.82 0.839-2.734 0.061-0.208 0.139-0.236 0.336-0.164 3.479 1.238 6.129 3.457 7.862 6.703 2.824 5.297 1.962 11.683-2.165 16.069-2.315 2.463-5.18 3.905-8.551 4.329-0.513 0.064-1.107 0.101-1.709 0.101-0.657 0-1.303-0.044-1.936-0.128l0.074 0.008c-0.023 0-0.045-0.011-0.109-0.033zM16.377 2.411c-0.374 0.467-0.72 0.903-1.068 1.336-0.47 0.586-0.943 1.168-1.408 1.757-0.078 0.109-0.202 0.18-0.342 0.189l-0.001 0c-4.709 0.443-8.502 3.712-9.489 8.324-0.763 3.563 0.151 6.736 2.607 9.444 1.168 1.289 2.599 2.203 4.241 2.785 0.137 0.049 0.184 0.089 0.132 0.247-0.003-0.138-0.305 0.813-0.599 1.767l-0.288 1.087c-0.055 0.182-0.132 0.168-0.274 0.116-3.485-1.251-6.117-3.493-7.856-6.75-1.319-2.468-1.843-5.118-1.517-7.889 0.572-4.883 3.067-8.531 7.379-10.91 2.488-1.373 5.189-1.837 8.017-1.569 0.138 0.017 0.275 0.040 0.466 0.066z"></path>
</symbol>
<symbol id="icon-line" viewBox="0 0 779 32">
<path fill="none" stroke="#FDD048" style="stroke: var(--color7, #FDD048)" stroke-linejoin="miter" stroke-linecap="round" stroke-miterlimit="4" stroke-width="10.6667" d="M5.333 26.667c54.773-16.099 285.053-38.637 768 0"></path>
</symbol>
<symbol id="icon-logo" viewBox="0 0 113 32">
<path fill="#3BAAFB" style="fill: var(--color2, #3BAAFB)" d="M18.291 7.945c-3.613 0.464-11.229-1.535-11.693-5.149l-0.053 0.007c0.719 5.44 5.328 9.594 10.906 9.594 0.494 0 0.98-0.033 1.456-0.096l-0.056 0.006c0.253-0.034 0.545-0.054 0.841-0.054 3.644 0 6.597 2.954 6.597 6.597s-2.954 6.597-6.597 6.597c-3.346 0-6.111-2.491-6.54-5.721l-0.004-0.034c-0.718-5.44-5.326-9.594-10.905-9.594-0.495 0-0.982 0.033-1.46 0.096l0.056-0.006 0.007 0.053c3.613-0.465 7.473 6.395 7.939 10.009h-0.001c0.719 5.441 5.328 9.596 10.907 9.596 6.073 0 10.997-4.923 10.997-10.997s-4.923-10.997-10.997-10.997c-0.494 0-0.981 0.033-1.458 0.096l0.056-0.006z"></path>
<path fill="#fff" style="fill: var(--color1, #fff)" d="M38.525 9.397v12.603h-2.527v-12.603h2.527zM46.565 11.853c1.191 0 2.155 0.379 2.889 1.137 0.735 0.747 1.101 1.793 1.101 3.142v5.868h-2.527v-5.525c0-0.794-0.199-1.402-0.596-1.823-0.397-0.433-0.939-0.65-1.625-0.65-0.698 0-1.251 0.217-1.661 0.65-0.397 0.421-0.596 1.029-0.596 1.823v5.525h-2.528v-10.003h2.528v1.246c0.338-0.431 0.768-0.773 1.261-1.003l0.021-0.009c0.496-0.24 1.079-0.38 1.694-0.38 0.014 0 0.027 0 0.041 0l-0.002-0zM57.545 14.073h-1.751v7.927h-2.564v-7.927h-1.137v-2.076h1.137v-0.505c0-1.228 0.349-2.131 1.047-2.709s1.751-0.849 3.16-0.813v2.131c-0.614-0.012-1.041 0.091-1.282 0.307s-0.361 0.608-0.361 1.173v0.416h1.751v2.076zM60.465 10.805c-0.445 0-0.818-0.138-1.119-0.415-0.289-0.289-0.433-0.644-0.433-1.065s0.145-0.77 0.433-1.047c0.301-0.289 0.674-0.433 1.12-0.433 0.445 0 0.812 0.144 1.101 0.433 0.301 0.277 0.452 0.626 0.452 1.047s-0.151 0.777-0.452 1.065c-0.289 0.277-0.656 0.415-1.101 0.415zM61.712 11.997v10.003h-2.529v-10.003h2.528zM69.752 11.853c1.191 0 2.155 0.379 2.889 1.137 0.735 0.747 1.101 1.793 1.101 3.142v5.868h-2.527v-5.525c0-0.794-0.199-1.402-0.596-1.823-0.397-0.433-0.939-0.65-1.625-0.65-0.698 0-1.251 0.217-1.661 0.65-0.397 0.421-0.596 1.029-0.596 1.823v5.525h-2.528v-10.003h2.528v1.246c0.338-0.431 0.767-0.774 1.261-1.003l0.021-0.009c0.496-0.24 1.079-0.38 1.694-0.38 0.014 0 0.028 0 0.041 0l-0.002-0zM77.428 10.806c-0.445 0-0.819-0.139-1.119-0.416-0.289-0.289-0.433-0.644-0.433-1.065s0.144-0.77 0.433-1.047c0.301-0.289 0.674-0.433 1.119-0.433s0.813 0.144 1.101 0.433c0.301 0.277 0.451 0.626 0.451 1.047 0 0.008 0 0.017 0 0.027 0 0.41-0.173 0.779-0.451 1.038l-0.001 0.001c-0.289 0.277-0.656 0.415-1.101 0.415zM78.674 11.997v10.003h-2.528v-10.003h2.528zM83.482 19.924h4.46v2.076h-7.331v-2.040l4.369-5.887h-4.351v-2.076h7.259v2.040l-4.406 5.887zM89.249 16.963c0-1.011 0.199-1.908 0.596-2.691 0.409-0.782 0.957-1.384 1.643-1.805 0.698-0.421 1.475-0.632 2.329-0.632 0.746 0 1.396 0.151 1.95 0.451 0.566 0.301 1.017 0.68 1.354 1.137v-1.427h2.546v10.003h-2.546v-1.463c-0.325 0.469-0.776 0.861-1.354 1.173-0.566 0.301-1.222 0.452-1.968 0.452-0.012 0-0.025 0-0.039 0-0.842 0-1.627-0.242-2.29-0.661l0.018 0.010c-0.686-0.433-1.234-1.041-1.643-1.824-0.397-0.794-0.596-1.703-0.596-2.727zM97.121 16.999c0-0.613-0.12-1.137-0.361-1.571-0.241-0.445-0.565-0.783-0.975-1.011-0.374-0.227-0.827-0.361-1.31-0.361-0.003 0-0.005 0-0.008 0h0c-0.469 0-0.903 0.115-1.3 0.343s-0.722 0.566-0.975 1.011c-0.241 0.433-0.361 0.951-0.361 1.553s0.12 1.131 0.361 1.589c0.253 0.445 0.578 0.789 0.975 1.029 0.371 0.227 0.82 0.361 1.3 0.361h0c0.469 0 0.909-0.115 1.318-0.343 0.412-0.246 0.743-0.589 0.968-0.998l0.007-0.014c0.241-0.445 0.361-0.975 0.361-1.589zM103.418 10.805c-0.445 0-0.819-0.138-1.119-0.415-0.268-0.263-0.434-0.629-0.434-1.034 0-0.011 0-0.022 0-0.033l-0 0.002c0-0.421 0.145-0.77 0.433-1.047 0.301-0.289 0.674-0.433 1.119-0.433s0.813 0.144 1.101 0.433c0.301 0.277 0.451 0.626 0.451 1.047s-0.15 0.777-0.451 1.065c-0.289 0.277-0.656 0.415-1.101 0.415zM104.664 11.997v10.003h-2.528v-10.003h2.528z"></path>
<path fill="#3baafb" style="fill: var(--color8, #3baafb)" d="M112.999 17.66h-3.665v3.665h3.665v-3.665z"></path>
</symbol>
<symbol id="icon-multiplayer" viewBox="0 0 32 32">
<path fill="#fff" style="fill: var(--color1, #fff)" d="M2.876 32c1.551 0 3.44-1.17 5.612-3.477 1.322-1.404 3.091-2.21 4.854-2.21h5.317c1.776 0 3.613 0.826 4.916 2.21 2.203 2.34 4.018 3.477 5.55 3.477 0.856 0 2.85-0.456 2.875-4.682 0.026-4.33-2.037-11.070-5.15-14.203-1.189-1.196-2.451-1.803-3.75-1.803-1.626 0-2.385 0.518-3.055 0.975-0.506 0.345-0.986 0.672-1.998 0.863 0.419-0.662 0.766-1.464 0.766-2.306 0-1.987-1.929-3.752-2.188-3.98-0.411-0.376-1.563-1.649-1.563-2.645 0-0.982 1.152-2.22 1.556-2.577 0.189-0.172 0.307-0.419 0.307-0.694 0-0.518-0.42-0.938-0.938-0.938-0.231 0-0.443 0.084-0.606 0.223l0.001-0.001c-0.225 0.197-2.195 1.979-2.195 3.987 0 1.998 1.959 3.835 2.182 4.037l0.013 0.012c0.403 0.353 1.555 1.584 1.555 2.575 0 0.826-0.815 1.833-1.313 2.344h-1.454c-1.164-0.182-1.675-0.531-2.216-0.9-0.67-0.457-1.429-0.975-3.055-0.975-1.299 0-2.561 0.607-3.75 1.803-3.113 3.132-5.176 9.872-5.15 14.202 0.025 4.226 2.019 4.682 2.876 4.682zM6.48 14.438c0.825-0.829 1.639-1.25 2.421-1.25 1.047 0 1.425 0.258 1.998 0.649 1.304 0.889 2.584 1.226 3.201 1.226h3.801c0.64 0 1.917-0.35 3.201-1.226 0.573-0.391 0.951-0.649 1.998-0.649 0.782 0 1.596 0.421 2.421 1.25 2.743 2.759 4.628 8.997 4.604 12.869-0.009 1.403-0.321 2.818-1 2.818-0.441 0-1.731-0.282-4.184-2.888-1.675-1.779-3.965-2.8-6.282-2.8h-5.317c-2.277 0-4.544 1.020-6.219 2.8-2.454 2.606-3.787 2.888-4.247 2.888-0.679 0-0.993-1.416-1.001-2.818-0.024-3.872 1.862-10.11 4.604-12.869z"></path>
<path fill="#fff" style="fill: var(--color1, #fff)" d="M6.625 20.688h0.938v0.938c0 0.518 0.42 0.938 0.938 0.938s0.938-0.42 0.938-0.938v0-0.938h0.938c0.518 0 0.938-0.42 0.938-0.938s-0.42-0.938-0.938-0.938v0h-0.938v-0.938c0-0.518-0.42-0.938-0.938-0.938s-0.938 0.42-0.938 0.938v0 0.938h-0.938c-0.518 0-0.938 0.42-0.938 0.938s0.42 0.938 0.938 0.938v0zM23.5 18.813c0.518 0 0.938-0.42 0.938-0.938s-0.42-0.938-0.938-0.938v0c-0.518 0-0.938 0.42-0.938 0.938s0.42 0.938 0.938 0.938v0zM23.5 22.562c0.518 0 0.938-0.42 0.938-0.938s-0.42-0.938-0.938-0.938v0c-0.518 0-0.938 0.42-0.938 0.938s0.42 0.938 0.938 0.938v0zM21.625 20.688c0.518 0 0.938-0.42 0.938-0.938s-0.42-0.938-0.938-0.938v0c-0.518 0-0.938 0.42-0.938 0.938s0.42 0.938 0.938 0.938v0zM25.375 20.688c0.518 0 0.938-0.42 0.938-0.938s-0.42-0.938-0.938-0.938v0c-0.518 0-0.938 0.42-0.938 0.938s0.42 0.938 0.938 0.938v0zM14.125 20.688h3.75c0.518 0 0.938-0.42 0.938-0.938s-0.42-0.938-0.938-0.938v0h-3.75c-0.518 0-0.938 0.42-0.938 0.938s0.42 0.938 0.938 0.938v0z"></path>
</symbol>
<symbol id="icon-muzica" viewBox="0 0 32 32">
<path d="M0.218 10.851c0.134-0.342 0.131-0.708 0.197-1.061 0.78-4.233 4.266-7.793 8.515-8.688 0.808-0.17 1.624-0.259 2.451-0.257 2.947 0.007 5.892-0.023 8.839 0.009 2.885 0.033 5.386 1.078 7.477 3.050 1.835 1.731 2.934 3.86 3.333 6.343 0.089 0.549 0.124 1.103 0.124 1.659-0.002 2.949 0.022 5.899-0.011 8.848-0.033 2.871-1.081 5.36-3.062 7.444-1.738 1.827-3.879 2.916-6.372 3.323-0.237 0.039-0.485 0.014-0.713 0.114h-10.723c-0.016-0.073-0.080-0.049-0.124-0.054-0.408-0.052-0.813-0.117-1.217-0.201-4.247-0.894-7.732-4.457-8.513-8.688-0.065-0.353-0.063-0.72-0.196-1.060-0.005-3.593-0.005-7.184-0.005-10.778zM10.313 6.875v0.334c0 3.559-0.003 7.114 0.007 10.672 0 0.241-0.066 0.283-0.285 0.255-0.141-0.018-0.303-0.029-0.468-0.029-0.288 0-0.568 0.032-0.837 0.093l0.025-0.005c-0.867 0.182-1.651 0.525-2.217 1.238-0.741 0.934-0.556 2.236 0.407 2.883 0.408 0.273 0.87 0.4 1.347 0.47 1.079 0.161 2.112 0.067 3.015-0.61 0.954-0.718 1.52-1.622 1.5-2.871-0.035-2.017-0.009-4.035-0.009-6.054v-0.245c0.088 0.014 0.118 0.061 0.159 0.102 1.040 1.078 2.085 2.154 3.126 3.231 0.258 0.267 0.253 0.269 0.509 0.015 1.081-1.078 2.163-2.152 3.246-3.226 0.059-0.059 0.104-0.157 0.218-0.153v0.166c0 4.147 0.003 8.294-0.004 12.441 0 0.208 0.040 0.273 0.259 0.269 0.671-0.016 1.341-0.012 2.012-0.003 0.173 0.003 0.229-0.033 0.229-0.22-0.004-6.166-0.004-12.331-0.007-18.494 0-0.059 0.043-0.138-0.052-0.182-1.992 1.983-3.984 3.966-5.971 5.955-0.125 0.124-0.186 0.14-0.315 0.007-0.839-0.869-1.685-1.731-2.529-2.593-1.106-1.136-2.214-2.269-3.365-3.447z"></path>
</symbol>
<symbol id="icon-openworld" viewBox="0 0 32 32">
<path fill="#fff" style="fill: var(--color1, #fff)" d="M16 0c-8.822 0-16 7.178-16 16s7.178 16 16 16 16-7.178 16-16-7.178-16-16-16zM16 29.217c-7.287 0-13.217-5.93-13.217-13.217s5.93-13.217 13.217-13.217 13.217 5.93 13.217 13.217-5.93 13.217-13.217 13.217z"></path>
<path fill="#fff" style="fill: var(--color1, #fff)" d="M23.449 8.553c-0.125-0.127-0.299-0.205-0.491-0.205-0.1 0-0.195 0.021-0.28 0.059l0.004-0.002-9.739 4.174c-0.165 0.072-0.294 0.201-0.364 0.361l-0.002 0.005-4.174 9.739c-0.036 0.081-0.057 0.175-0.057 0.275 0 0.192 0.078 0.366 0.204 0.492v0c0.127 0.124 0.301 0.201 0.492 0.201h0c0.092 0 0.185-0.020 0.274-0.055l9.739-4.174c0.165-0.072 0.294-0.201 0.364-0.361l0.002-0.005 4.174-9.739c0.035-0.081 0.056-0.174 0.056-0.273 0-0.192-0.078-0.366-0.203-0.492l0 0zM16 17.391c-0.768-0.001-1.39-0.623-1.392-1.391v-0c0.001-0.768 0.624-1.39 1.391-1.391h0c0.768 0.001 1.39 0.623 1.391 1.391v0c-0.001 0.768-0.623 1.39-1.391 1.391h-0z"></path>
</symbol>
<symbol id="icon-smooth" viewBox="0 0 32 32">
<path fill="#fff" style="fill: var(--color1, #fff)" d="M16 29.666c-7.536 0-13.667-6.13-13.667-13.666s6.131-13.667 13.667-13.667c7.536 0 13.666 6.131 13.666 13.667s-6.13 13.666-13.666 13.666zM16 5c-6.066 0-11 4.934-11 11s4.934 11 11 11c6.065 0 11-4.935 11-11s-4.935-11-11-11z"></path>
<path fill="#fff" style="fill: var(--color1, #fff)" d="M16 7.333c-0.736-0-1.333-0.597-1.333-1.333v-4.667c0-0.736 0.597-1.333 1.333-1.333h0c0.736 0 1.333 0.597 1.334 1.333v4.667c-0 0.736-0.597 1.333-1.334 1.333v0zM30.667 17.334h-4.667c-0.736-0-1.333-0.597-1.333-1.334v0c0-0.736 0.597-1.333 1.333-1.333h4.667c0.736 0 1.333 0.597 1.333 1.333v0c-0 0.736-0.597 1.333-1.333 1.334h-0zM16 32c-0.736-0-1.333-0.597-1.333-1.333v-4.667c0-0.736 0.597-1.333 1.333-1.333h0c0.736 0 1.333 0.597 1.334 1.333v4.667c-0 0.736-0.597 1.333-1.334 1.333v0zM6 17.334h-4.667c-0.736-0-1.333-0.597-1.333-1.334v0c0-0.736 0.597-1.333 1.333-1.333h4.667c0.736 0 1.333 0.597 1.333 1.333v0c-0 0.736-0.597 1.333-1.333 1.334h-0zM16 20c-2.205 0-4-1.795-4-4s1.795-4 4-4 4 1.795 4 4-1.795 4-4 4zM16 14.667c-0.736 0.001-1.332 0.597-1.333 1.333v0c0.001 0.736 0.597 1.332 1.333 1.333h0c0.736-0.001 1.332-0.597 1.333-1.333v-0c-0.001-0.736-0.597-1.332-1.333-1.333h-0z"></path>
</symbol>
<symbol id="icon-menu" viewBox="0 0 32 32">
<path d="M2 6h28v6h-28zM2 14h28v6h-28zM2 22h28v6h-28z"></path>
</symbol>
</defs>
</svg>
