<svg width="37" height="37" fill="none" xmlns="http://www.w3.org/2000/svg"><path d="M.056 18.285c.274-.9.773-1.695 1.194-2.526.44-.867.418-1.792.352-2.725a7.958 7.958 0 0 1-.006-1.15c.056-.81.418-1.46 1.039-1.979.388-.326.798-.62 1.216-.905a4.513 4.513 0 0 0 1.695-2.12c.155-.393.344-.774.512-1.163.455-1.044 1.277-1.607 2.383-1.8.38-.067.756-.147 1.135-.205.964-.149 1.781-.58 2.488-1.242.28-.263.584-.5.875-.751.834-.718 1.787-.903 2.842-.624.304.08.612.146.908.245a5.082 5.082 0 0 0 3.283.003c.49-.16.991-.284 1.506-.35.723-.092 1.363.093 1.95.505.35.246.688.508.987.809.872.875 1.928 1.344 3.146 1.494.36.044.715.143 1.07.223.88.202 1.498.73 1.889 1.527.207.425.412.853.584 1.295.36.911.936 1.637 1.753 2.187.421.281.826.582 1.214.914.648.552.972 1.245 1.008 2.087.025.536-.014 1.071-.047 1.604-.061.928.155 1.778.612 2.58.205.358.393.728.584 1.092.513.975.51 1.953 0 2.927-.138.268-.26.55-.424.8-.692 1.07-.886 2.235-.745 3.477.045.392.034.787.006 1.179-.064.928-.557 1.601-1.274 2.14-.333.248-.662.5-1.006.734a4.428 4.428 0 0 0-1.656 2.077c-.158.392-.338.776-.507 1.165-.46 1.055-1.282 1.629-2.401 1.82-.369.063-.737.14-1.106.198-.972.152-1.8.58-2.515 1.254-.28.262-.584.5-.875.75-.837.716-1.79.9-2.842.62-.302-.08-.612-.147-.909-.246a5.1 5.1 0 0 0-3.282 0c-.479.157-.972.278-1.476.345-.743.096-1.404-.092-2.006-.525a7.545 7.545 0 0 1-.96-.792c-.873-.876-1.929-1.342-3.147-1.491-.36-.045-.715-.144-1.07-.224-.867-.199-1.484-.72-1.872-1.505a18.465 18.465 0 0 1-.61-1.35 4.529 4.529 0 0 0-1.695-2.12 14.44 14.44 0 0 1-1.263-.948c-.64-.543-.96-1.228-1.002-2.06-.028-.587.03-1.17.052-1.753.025-.759-.108-1.482-.47-2.159-.41-.77-.854-1.524-1.114-2.366-.003-.326-.003-.649-.003-.972Zm5.676.464c0 6.95 5.647 12.577 12.633 12.563 6.861-.014 12.407-5.5 12.567-12.232.167-7.043-5.476-12.703-12.312-12.85-7.14-.154-12.888 5.594-12.888 12.519Z" fill="#141820"/><path d="M5.732 18.75c0-6.923 5.747-12.674 12.888-12.522 6.836.146 12.478 5.806 12.312 12.85-.158 6.734-5.706 12.22-12.567 12.232-6.986.013-12.633-5.614-12.633-12.56Zm12.586 11.844c6.57 0 11.891-5.284 11.9-11.795.008-6.508-5.247-11.693-11.57-11.856-6.692-.174-12.205 5.207-12.202 11.8.003 6.561 5.302 11.851 11.872 11.851Z" fill="#141820"/><path d="M18.319 30.594c-6.57 0-11.87-5.29-11.872-11.853-.003-6.594 5.512-11.972 12.201-11.801 6.324.163 11.578 5.348 11.57 11.856-.008 6.513-5.33 11.798-11.9 11.798Zm3.274-16.94c-1.485-1.72-3.335-2.166-5.416-1.86-1.955.287-3.373 1.416-4.412 3.026-1.053 1.63-1.272 3.432-.989 5.318.415 2.764 2.848 5.552 6.058 5.69 1.515.067 2.922-.242 4.1-1.27.218-.19.418-.4.659-.635 0 .442.01.854-.006 1.262-.008.21.047.27.263.268.975-.011 1.95-.014 2.922.003.241.003.275-.075.275-.287-.009-2.06-.006-4.123-.006-6.182v-6.638c0-.138.036-.268-.202-.265-1.014.014-2.03.011-3.044.003-.189-.003-.21.074-.208.232.011.42.006.839.006 1.336Z" fill="#141820"/><path d="M17.855 14.98c2.225.011 3.748 1.594 3.737 3.883-.011 2.148-1.612 3.708-3.767 3.702-2.205-.008-3.784-1.695-3.706-3.976.066-2.06 1.631-3.62 3.736-3.609Z" fill="#141820"/></svg>