<svg width="32" height="32" fill="none" xmlns="http://www.w3.org/2000/svg"><path d="M12.162 23.92a4.045 4.045 0 0 0-4.04 4.04 4.045 4.045 0 0 0 4.04 4.04 4.045 4.045 0 0 0 4.04-4.04 4.045 4.045 0 0 0-4.04-4.04Zm0 5.656a1.618 1.618 0 0 1-1.616-1.616c0-.891.725-1.616 1.616-1.616.89 0 1.616.725 1.616 1.616 0 .892-.725 1.616-1.616 1.616ZM24.121 23.92a4.045 4.045 0 0 0-4.04 4.04A4.045 4.045 0 0 0 24.12 32a4.045 4.045 0 0 0 4.04-4.04 4.045 4.045 0 0 0-4.04-4.04Zm0 5.656a1.618 1.618 0 0 1-1.616-1.616c0-.891.725-1.616 1.616-1.616.892 0 1.616.725 1.616 1.616 0 .892-.724 1.616-1.616 1.616ZM31.13 7.892c-.23-.29-.579-.458-.948-.458H8.958L7.856 1.866a1.212 1.212 0 0 0-.97-.957L2.037.02A1.212 1.212 0 1 0 1.6 2.405l4.038.74 3.557 17.98c.112.567.61.976 1.19.976h16.969c.564 0 1.053-.389 1.18-.94L31.364 8.92a1.211 1.211 0 0 0-.233-1.027Zm-4.74 11.785H11.38L9.437 9.859h19.22l-2.267 9.818Z" fill="#fff"/></svg>