<svg width="37" height="37" fill="none" xmlns="http://www.w3.org/2000/svg"><path d="M19.707.97c.393.13.808.113 1.209.173a17.9 17.9 0 0 1 8.167 3.386c.133.1.147.157.036.289a473.98 473.98 0 0 0-3.205 3.78c-.12.144-.184.14-.328.038a12.217 12.217 0 0 0-5.453-2.193c-2.447-.348-4.817-.04-7.044 1.035-4.01 1.939-6.418 5.123-7.122 9.505-.821 5.112 1.836 10.362 6.502 12.744 4.489 2.292 8.88 1.965 13.079-.816.184-.121.255-.11.393.054a419.856 419.856 0 0 0 3.164 3.738c.13.15.09.21-.049.313-2.11 1.569-4.454 2.644-7.033 3.165-3.89.788-7.677.418-11.256-1.302C5.425 32.31 2.107 28.1.82 22.32a17.202 17.202 0 0 1-.29-1.93c-.005-.052.025-.125-.062-.144V17.28c.084-.021.054-.091.063-.143.057-.421.1-.842.17-1.26.626-3.776 2.303-7.025 5.02-9.72 2.818-2.792 6.218-4.466 10.162-5.028.344-.049.702-.022 1.03-.157C17.84.97 18.774.97 19.706.97Z" fill="#141820"/><path d="M36.221 18.774c-.076 5.058-1.92 9.362-5.564 12.9-.15.146-.223.17-.377-.016a318.12 318.12 0 0 0-3.162-3.738c-.121-.143-.108-.205.022-.337 2.812-2.887 4.058-6.325 3.598-10.332-.328-2.857-1.582-5.282-3.609-7.316-.114-.113-.135-.167-.024-.3a471.569 471.569 0 0 0 3.202-3.78c.133-.16.206-.14.339-.01 3.107 3.002 4.952 6.629 5.459 10.92.075.661.121 1.331.116 2.009Z" fill="#141820"/></svg>