<svg width="35" height="37" fill="none" xmlns="http://www.w3.org/2000/svg"><path d="M16.366 22.972c-.136-.932-.84-1.381-1.521-1.839-.693-.466-1.41-.904-1.923-1.579-.728-.953-1.008-2.009-.503-3.143.723-1.623 2.945-2.08 4.382-.875.437.365.714.433 1.244.187 1.15-.54 2.358-.209 3.23.777 1.163 1.313 1.464 2.846.962 4.49-.799 2.6-2.505 4.392-5.148 5.147-1.79.512-3.553.233-5.186-.674-2.638-1.468-4.366-3.645-4.893-6.629C6.244 14.5 8.06 10.426 12.3 8.46c4.191-1.944 8.247-1.49 11.91 1.338 2.186 1.687 3.348 4.048 3.512 6.791.285 4.793-1.93 8.249-6.029 10.599-1.382.793-2.917 1.175-4.45 1.56-.923.233-1.85.455-2.735.817a3.672 3.672 0 0 0-.853.48c-.16.124-.288.273-.367.46-.065.157-.081.303.074.425.163.128.228-.038.318-.105 1.105-.81 2.363-1.24 3.697-1.482.837-.151 1.679-.205 2.515 0 .354.087.677.236.938.493.679.666.535 1.671-.315 2.191-.585.357-1.24.53-1.905.647-1.624.282-3.243.293-4.843-.168-.128-.038-.169.006-.204.128-.057.186-.014.354.046.52.068.186.182.349.31.503.41.493.461.496 1 .195 1.154-.644 2.376-.95 3.694-.642.551.13 1.008.425 1.285.937.318.588.155 1.059-.46 1.333-.545.243-1.132.29-1.719.298-1.087.013-2.14-.147-3.132-.607-.139-.065-.215-.033-.31.057-.331.306-.489.666-.358 1.118a.392.392 0 0 1 .013.23c-.464-.474-.532-.996-.184-1.605.09-.157.07-.217-.068-.325-.62-.502-1.111-1.084-1.111-1.937 0-.641-.006-.633-.348-1.164-.424-.655-.307-1.305.081-1.925.424-.672 1.084-1.06 1.78-1.398 1.146-.555 2.363-.918 3.57-1.305 1.95-.628 3.702-1.581 5.153-3.038 1.695-1.703 2.632-3.748 2.654-6.163a7.44 7.44 0 0 0-5.13-7.163c-2.8-.918-5.503-.715-7.943 1.051-1.822 1.322-2.817 3.166-3.172 5.378-.58 3.596 1.803 6.737 4.237 7.972 1.473.747 2.964.726 4.404-.043 1.972-1.056 3.083-2.727 3.255-4.959.078-1.004-.313-1.882-.998-2.618-.5-.539-1.179-.663-1.852-.38-.158.069-.174.12-.1.274.284.596.418 1.213.206 1.869-.28.86-1.033 1.346-1.815 1.162-.714-.169-1.133-.786-1.027-1.512.103-.709.443-1.305.908-1.835.122-.139.133-.22-.011-.35-.503-.455-1.076-.717-1.763-.628-1.185.154-1.829 1.186-1.516 2.388.19.732.64 1.284 1.187 1.777.434.392.888.763 1.31 1.17.453.436.793.942.757 1.613a.23.23 0 0 0-.03.09Zm-1.314 8.378c1.518.06 3.015-.027 4.455-.585-1.554-.344-3.021-.016-4.456.585Zm2.195-13.735c-.384.347-.658.737-.78 1.222-.046.184-.03.355.163.463.182.103.358.105.53-.02.16-.116.247-.278.306-.46.14-.43-.016-.806-.22-1.204ZM15.507 34.6c1.088.246 2.106.232 3.136-.044-.375-.46-2.252-.363-3.135.044ZM11.083.98c.198.011.41.125.535.363.587 1.146 1.109 2.315 1.443 3.561.04.152.046.311.073.469.022.132.033.268-.108.335-.142.068-.253-.027-.343-.119-.179-.184-.372-.36-.519-.571a19.985 19.985 0 0 1-1.77-3.014c-.242-.506.083-1.032.69-1.024ZM3.204 6.69c.147-.012.28.037.391.118C4.894 7.718 6.2 8.62 7.36 9.706c.106.1.315.203.215.376-.109.187-.304.057-.454 0-1.51-.558-2.906-1.346-4.308-2.12-.274-.152-.372-.506-.272-.81.09-.27.364-.46.663-.463ZM22.822.97c.505 0 .86.498.635.95-.66 1.322-1.434 2.575-2.388 3.713-.076.09-.163.154-.282.1-.16-.073-.114-.217-.087-.339.2-.888.51-1.743.853-2.586.195-.484.413-.96.63-1.438a.654.654 0 0 1 .639-.4ZM29.973 6.548c.354 0 .57.149.688.433.125.309.046.607-.242.815-.337.247-.685.477-1.035.7-.856.535-1.695 1.104-2.616 1.526a2.845 2.845 0 0 1-.247.106c-.09.032-.19.1-.267-.014-.065-.094-.019-.19.038-.273.212-.3.462-.572.726-.826a46.548 46.548 0 0 1 2.415-2.21c.166-.14.337-.276.54-.257ZM30.011 17.28c-.07-.003-.139-.009-.21-.011-.094 0-.178-.02-.22-.117-.043-.105-.002-.192.069-.268.18-.19.386-.341.617-.46 1.01-.526 2.045-1 3.124-1.376.491-.17.899.12.858.598-.016.19-.095.36-.269.434a17.387 17.387 0 0 1-3.969 1.2ZM3.386 16.84c-.959-.05-1.76-.11-2.556-.232-.377-.057-.598-.236-.633-.523-.049-.39.234-.728.625-.688 1.176.125 2.333.35 3.466.693.15.047.283.141.424.214.103.055.177.13.152.26-.022.114-.117.147-.212.18-.467.159-.948.097-1.266.097Z" fill="#141820"/><path d="M15.051 31.35c1.435-.602 2.902-.93 4.455-.585-1.44.555-2.936.644-4.455.585ZM17.246 17.615c.204.395.362.772.218 1.205-.06.181-.147.347-.307.46-.174.125-.348.125-.53.02-.19-.109-.21-.282-.163-.464.125-.484.4-.874.782-1.221ZM15.508 34.6c.882-.407 2.76-.502 3.134-.044-1.03.276-2.048.287-3.134.043Z" fill="#141820"/></svg>