<svg width="33" height="37" fill="none" xmlns="http://www.w3.org/2000/svg"><path d="m21.555.997-.705 2.301a6350.662 6350.662 0 0 1-3.59 11.684c-.065.215-.054.275.194.302 1.273.142 2.541.308 3.812.458.145.016.23.07.306.193.953 1.574 1.907 3.151 2.874 4.717.115.185 0 .27-.088.379l-5.22 6.52c-2.334 2.91-4.665 5.825-7 8.736-.082.104-.14.243-.334.289.131-.428.252-.825.377-1.223 1.339-4.308 2.675-8.614 4.022-12.92.074-.231.05-.291-.2-.319-1.243-.138-2.48-.302-3.72-.446-.197-.022-.318-.085-.424-.262a529.914 529.914 0 0 0-2.798-4.591c-.104-.17-.098-.273.03-.436C13.16 11.327 17.22 6.272 21.28 1.215c.069-.085.14-.164.21-.245.025.013.044.019.066.027Z" fill="#141820"/><path d="M14.438 34.773c.981-1.225 1.94-2.421 2.897-3.622.114-.144.267-.117.41-.128 1.945-.163 3.764-.727 5.41-1.77 3.444-2.182 5.447-5.29 5.838-9.35.538-5.583-2.83-10.785-8.148-12.664-.22-.079-.29-.147-.21-.39.339-1.048.661-2.104.97-3.161.071-.24.161-.273.388-.19 4.022 1.432 7.087 3.997 9.09 7.75 3.265 6.125 2.268 13.508-2.503 18.58-2.677 2.848-5.989 4.515-9.887 5.005a16.753 16.753 0 0 1-4.129-.022c-.027 0-.052-.013-.126-.038ZM18.936 2.788c-.432.54-.833 1.044-1.235 1.545-.544.678-1.09 1.35-1.628 2.031a.524.524 0 0 1-.397.218c-5.445.512-9.83 4.292-10.972 9.625-.882 4.12.175 7.789 3.014 10.92 1.35 1.49 3.005 2.547 4.904 3.22.158.057.213.103.153.286a177.362 177.362 0 0 0-1.025 3.3c-.063.21-.153.194-.317.134-4.03-1.446-7.073-4.039-9.084-7.805C.824 23.408.218 20.344.595 17.14c.661-5.646 3.546-9.864 8.532-12.615 2.877-1.588 6-2.124 9.27-1.814.16.02.318.046.539.076Z" fill="#141820"/></svg>