<svg width="170" height="48" fill="none" xmlns="http://www.w3.org/2000/svg"><path d="M27.437 11.918c-5.42.696-16.843-2.302-17.54-7.723l-.08.01a16.494 16.494 0 0 0 18.46 14.257 9.896 9.896 0 1 1-8.553 11.08A16.491 16.491 0 0 0 1.262 15.286l.01.08c5.42-.697 11.21 9.592 11.908 15.013h-.001a16.495 16.495 0 1 0 14.258-18.462Z" fill="url(#a)"/><path d="M57.787 14.096V33h-3.791V14.096h3.791Zm12.061 3.683c1.787 0 3.232.569 4.333 1.706 1.102 1.12 1.652 2.69 1.652 4.713V33h-3.791v-8.288c0-1.191-.298-2.103-.894-2.735-.596-.65-1.408-.975-2.438-.975-1.047 0-1.877.325-2.491.975-.596.632-.894 1.544-.894 2.735V33h-3.792V17.996h3.792v1.869a5.14 5.14 0 0 1 1.923-1.517 5.957 5.957 0 0 1 2.6-.569Zm16.47 3.331h-2.627V33h-3.846V21.11H78.14v-3.114h1.706v-.758c0-1.842.524-3.196 1.571-4.063 1.047-.867 2.627-1.273 4.74-1.219v3.196c-.921-.018-1.562.136-1.923.46-.361.325-.542.912-.542 1.76v.624h2.627v3.114Zm4.38-4.902c-.668 0-1.227-.207-1.679-.623-.433-.433-.65-.966-.65-1.598 0-.631.217-1.155.65-1.57.451-.434 1.011-.65 1.68-.65.667 0 1.218.216 1.651.65.452.415.678.939.678 1.57 0 .632-.226 1.165-.678 1.598-.433.416-.984.623-1.652.623Zm1.87 1.788V33h-3.793V17.996h3.792Zm12.06-.217c1.787 0 3.232.569 4.333 1.706 1.102 1.12 1.652 2.69 1.652 4.713V33h-3.791v-8.288c0-1.191-.298-2.103-.894-2.735-.596-.65-1.408-.975-2.438-.975-1.047 0-1.877.325-2.491.975-.596.632-.894 1.544-.894 2.735V33h-3.792V17.996h3.792v1.869a5.132 5.132 0 0 1 1.923-1.517 5.955 5.955 0 0 1 2.6-.569Zm11.514-1.57c-.668 0-1.228-.208-1.679-.624-.434-.433-.65-.966-.65-1.598 0-.631.216-1.155.65-1.57.451-.434 1.011-.65 1.679-.65.668 0 1.219.216 1.652.65.451.415.677.939.677 1.57a2.13 2.13 0 0 1-.677 1.598c-.433.416-.984.623-1.652.623Zm1.869 1.787V33h-3.792V17.996h3.792Zm7.212 11.89h6.69V33h-10.996v-3.06l6.554-8.83h-6.527v-3.114h10.888v3.06l-6.609 8.83Zm8.651-4.442c0-1.517.298-2.862.894-4.036.613-1.173 1.435-2.076 2.464-2.708 1.047-.632 2.212-.948 3.494-.948 1.119 0 2.094.226 2.925.677.849.452 1.526 1.02 2.031 1.706v-2.14h3.819V33h-3.819v-2.194c-.487.704-1.164 1.291-2.031 1.76-.849.452-1.833.678-2.952.678a6.445 6.445 0 0 1-3.467-.975c-1.029-.65-1.851-1.562-2.464-2.736-.596-1.191-.894-2.555-.894-4.09Zm11.808.054c0-.92-.18-1.706-.542-2.356-.361-.668-.848-1.174-1.462-1.517a3.834 3.834 0 0 0-1.977-.542c-.704 0-1.354.172-1.95.515-.596.343-1.083.849-1.463 1.517-.361.65-.541 1.426-.541 2.329 0 .902.18 1.697.541 2.383.38.668.867 1.183 1.463 1.544a3.787 3.787 0 0 0 1.95.542c.704 0 1.363-.172 1.977-.515a3.937 3.937 0 0 0 1.462-1.517c.362-.668.542-1.462.542-2.383Zm9.445-9.29c-.668 0-1.228-.207-1.679-.623a2.173 2.173 0 0 1-.65-1.598c0-.631.217-1.155.65-1.57.451-.434 1.011-.65 1.679-.65.668 0 1.219.216 1.652.65.452.415.677.939.677 1.57 0 .632-.225 1.165-.677 1.598-.433.416-.984.623-1.652.623Zm1.869 1.788V33h-3.792V17.996h3.792Z" fill="#fff"/><path d="M169.498 26.49H164v5.497h5.498V26.49Z" fill="#3BAAFB"/><defs><linearGradient id="a" x1="16.303" y1="9.706" x2="49.29" y2="47.641" gradientUnits="userSpaceOnUse"><stop stop-color="#57B8FF"/><stop offset=".941" stop-color="#038EF2"/><stop offset="1" stop-color="#fff" stop-opacity="0"/></linearGradient></defs></svg>