<svg width="128" height="128" fill="none" xmlns="http://www.w3.org/2000/svg"><path d="M11.503 128c6.206 0 13.76-4.68 22.448-13.91 5.289-5.618 12.365-8.84 19.416-8.84h21.267c7.103 0 14.454 3.305 19.665 8.84 8.812 9.36 16.072 13.91 22.198 13.91 3.424 0 11.4-1.825 11.502-18.727.105-17.321-8.147-44.282-20.599-56.81-4.757-4.785-9.804-7.212-15-7.212-6.504 0-9.54 2.072-12.22 3.9-2.022 1.38-3.942 2.689-7.994 3.45 1.676-2.65 3.064-5.857 3.064-9.225 0-7.948-7.716-15.01-8.75-15.92-1.645-1.503-6.25-6.595-6.25-10.58 0-3.93 4.609-8.881 6.224-10.307A3.75 3.75 0 0 0 61.531.93c-.9.786-8.781 7.915-8.781 15.947 0 7.991 7.835 15.339 8.729 16.15l.052.047c1.613 1.411 6.219 6.335 6.219 10.302 0 3.306-3.26 7.333-5.254 9.375h-5.814c-4.656-.73-6.7-2.125-8.863-3.6-2.679-1.828-5.715-3.9-12.219-3.9-5.196 0-10.243 2.427-15 7.213C8.148 64.991-.104 91.952.001 109.272.103 126.175 8.079 128 11.503 128ZM25.92 57.75c3.298-3.317 6.555-5 9.682-5 4.188 0 5.701 1.033 7.992 2.596 5.215 3.558 10.336 4.905 12.805 4.905h15.203c2.562 0 7.669-1.4 12.806-4.905 2.29-1.563 3.804-2.595 7.992-2.595 3.126 0 6.384 1.682 9.682 5 10.971 11.038 18.512 35.988 18.418 51.476-.034 5.611-1.284 11.273-4.002 11.273-1.763 0-6.923-1.126-16.737-11.551-6.7-7.117-15.858-11.199-25.126-11.199H53.367c-9.11 0-18.177 4.082-24.877 11.199-9.814 10.425-15.148 11.551-16.986 11.551-2.718 0-3.97-5.662-4.003-11.273-.094-15.488 7.447-40.438 18.418-51.476Z" fill="#fff"/><path d="M26.5 82.75h3.75v3.75a3.75 3.75 0 0 0 7.5 0v-3.75h3.75a3.75 3.75 0 0 0 0-7.5h-3.75V71.5a3.75 3.75 0 0 0-7.5 0v3.75H26.5a3.75 3.75 0 0 0 0 7.5ZM93.999 75.25a3.75 3.75 0 1 0 0-7.5 3.75 3.75 0 0 0 0 7.5ZM93.999 90.249a3.75 3.75 0 1 0 0-7.5 3.75 3.75 0 0 0 0 7.5ZM86.5 82.75a3.75 3.75 0 1 0 0-7.5 3.75 3.75 0 0 0 0 7.5ZM101.499 82.75a3.75 3.75 0 1 0 0-7.5 3.75 3.75 0 0 0 0 7.5ZM56.5 82.75h15a3.75 3.75 0 0 0 0-7.5h-15a3.75 3.75 0 0 0 0 7.5Z" fill="#fff"/></svg>