<svg width="37" height="37" fill="none" xmlns="http://www.w3.org/2000/svg"><path d="M.252 12.547c.155-.395.152-.819.228-1.227.902-4.894 4.932-9.011 9.846-10.046.934-.197 1.878-.3 2.834-.297 3.407.008 6.813-.027 10.22.01 3.336.038 6.228 1.246 8.645 3.526 2.122 2.002 3.393 4.463 3.854 7.334.103.635.143 1.275.143 1.918-.002 3.41.025 6.821-.013 10.23-.038 3.32-1.25 6.197-3.54 8.607-2.01 2.113-4.485 3.372-7.368 3.842-.274.045-.561.016-.824.132H11.878c-.018-.084-.092-.057-.143-.062-.472-.06-.94-.135-1.407-.233-4.91-1.034-8.94-5.154-9.843-10.046-.075-.408-.073-.832-.227-1.226-.006-4.155-.006-8.307-.006-12.462Zm11.673-4.598v.386c0 4.115-.003 8.226.008 12.34 0 .279-.076.327-.33.295a4.393 4.393 0 0 0-1.48.068c-1.003.21-1.909.607-2.564 1.431-.857 1.08-.643 2.585.471 3.334.472.316 1.006.462 1.558.543 1.247.186 2.442.078 3.486-.705 1.103-.83 1.758-1.875 1.734-3.32-.04-2.332-.01-4.666-.01-7v-.283c.102.016.137.07.184.118 1.203 1.246 2.411 2.491 3.615 3.736.298.309.292.311.588.017 1.25-1.246 2.501-2.488 3.753-3.73.068-.068.12-.182.252-.177v.192c0 4.795.003 9.59-.005 14.385 0 .24.046.316.3.311.776-.019 1.55-.014 2.326-.003.2.003.265-.038.265-.254-.005-7.129-.005-14.258-.008-21.384 0-.068.05-.16-.06-.21-2.303 2.293-4.606 4.586-6.904 6.885-.144.143-.215.162-.364.008-.97-1.005-1.948-2.002-2.924-2.998-1.279-1.313-2.56-2.623-3.891-3.985Z" fill="#141820"/></svg>