<svg width="128" height="128" fill="none" xmlns="http://www.w3.org/2000/svg"><path d="M64 118.666C33.856 118.666 9.333 94.144 9.333 64S33.856 9.333 64 9.333c30.144 0 54.666 24.523 54.666 54.667 0 30.144-24.522 54.666-54.666 54.666ZM64 20c-24.262 0-44 19.738-44 44 0 24.261 19.738 44 44 44 24.261 0 44-19.739 44-44 0-24.262-19.739-44-44-44Z" fill="#fff"/><path d="M64 29.333A5.335 5.335 0 0 1 58.667 24V5.333A5.335 5.335 0 0 1 64 0a5.335 5.335 0 0 1 5.334 5.333V24A5.335 5.335 0 0 1 64 29.333ZM122.667 69.334H104A5.335 5.335 0 0 1 98.667 64 5.335 5.335 0 0 1 104 58.667h18.667A5.335 5.335 0 0 1 128 64a5.335 5.335 0 0 1-5.333 5.334ZM64 128a5.335 5.335 0 0 1-5.333-5.333V104A5.335 5.335 0 0 1 64 98.667 5.335 5.335 0 0 1 69.334 104v18.667A5.335 5.335 0 0 1 64 128ZM24 69.334H5.333A5.335 5.335 0 0 1 0 64a5.335 5.335 0 0 1 5.333-5.333H24A5.335 5.335 0 0 1 29.333 64 5.335 5.335 0 0 1 24 69.334ZM64 80c-8.821 0-16-7.179-16-16s7.179-16 16-16 16 7.179 16 16-7.179 16-16 16Zm0-21.333A5.342 5.342 0 0 0 58.667 64 5.342 5.342 0 0 0 64 69.333 5.342 5.342 0 0 0 69.333 64 5.342 5.342 0 0 0 64 58.667Z" fill="#fff"/></svg>